<?xml version="1.0" encoding="utf-8"?><!-- Uploaded to: SVG Repo, www.svgrepo.com, Generator: SVG Repo Mixer Tools -->
<svg width="800px" height="800px" viewBox="0 -0.5 45.011 45.011" xmlns="http://www.w3.org/2000/svg">
  <path id="picture" d="M228.65,454.875a2.277,2.277,0,0,1-1.843,1.8,143.379,143.379,0,0,1-38.65,0,2.277,2.277,0,0,1-1.843-1.8,134.134,134.134,0,0,1,0-37.8,2.277,2.277,0,0,1,1.843-1.8,143.382,143.382,0,0,1,38.65,0,2.277,2.277,0,0,1,1.843,1.8A134.135,134.135,0,0,1,228.65,454.875Zm-6.777-28.459c-.326-.365-.69-.723-1.038-1.085-.033-.5-.082-1.009-.156-1.516a.279.279,0,0,0-.225-.22c-.518-.072-1.034-.12-1.549-.153-.37-.34-.736-.7-1.109-1.015a.237.237,0,0,0-.3,0c-.373.318-.738.675-1.109,1.015-.515.032-1.031.08-1.548.153a.279.279,0,0,0-.225.22c-.074.507-.123,1.011-.156,1.515-.348.363-.713.721-1.039,1.086a.224.224,0,0,0,0,.291c.326.365.69.723,1.039,1.086.033.5.082,1.007.156,1.513a.279.279,0,0,0,.225.22c.517.072,1.032.12,1.546.152.371.341.737.7,1.111,1.017a.237.237,0,0,0,.3,0c.374-.319.74-.676,1.111-1.017.515-.033,1.03-.08,1.547-.152a.279.279,0,0,0,.225-.22c.074-.506.123-1.01.156-1.514.348-.362.712-.72,1.038-1.085a.224.224,0,0,0,0-.291Zm3.92,26.212c-2.336-5.57-6.6-11.687-10.6-17.93-.052.021-.107.037-.161.056A1.237,1.237,0,0,0,213.9,433.7a.956.956,0,0,0-.965,1.065c0,.007,0,.014,0,.021-.106-.03-.215-.054-.318-.093-2.308,4.587-5.25,9.292-7.9,13.935-1.837-3.069-3.7-6.127-5.326-9.121-.045.018-.092.033-.137.049a.765.765,0,0,0-.8-.768.933.933,0,0,0-.9.848c0,.006,0,.011,0,.016-.083-.02-.169-.034-.249-.06-3.054,4.7-5.932,9.26-7.655,13.5.025.02.046.043.071.063a.754.754,0,0,0-.14.684,1.55,1.55,0,0,0,1.29,1.1.914.914,0,0,0,.275-.021c3.977.314,7.954.479,11.931.567a1.32,1.32,0,0,0,.4.092,1.216,1.216,0,0,0,.366-.054c.412.008.824,0,1.236.008.583.007,1.165.038,1.747.04a.826.826,0,0,0,.617-.025q8.346.012,16.692-.625a1.034,1.034,0,0,0,.335.03,1.775,1.775,0,0,0,1.479-1.266.841.841,0,0,0-.3-.913C225.7,452.721,225.741,452.67,225.793,452.628Z" transform="translate(-184.977 -413.97)" fill="#2d5be2"/>
</svg>